<?xml version="1.0" encoding="utf-8"?>
<!-- Generator: Adobe Illustrator 16.0.0, SVG Export Plug-In . SVG Version: 6.00 Build 0)  -->
<!DOCTYPE svg PUBLIC "-//W3C//DTD SVG 1.1//EN" "http://www.w3.org/Graphics/SVG/1.1/DTD/svg11.dtd">
<svg version="1.1" id="Livello_1" xmlns="http://www.w3.org/2000/svg" xmlns:xlink="http://www.w3.org/1999/xlink" x="0px" y="0px"
	 width="447px" height="439.37px" viewBox="0 0 447 439.37" enable-background="new 0 0 447 439.37" xml:space="preserve">
<g>
	<polygon fill-rule="evenodd" clip-rule="evenodd" fill="#007D7B" points="447,440.202 0,440.202 0,0 447,0 447,440.202 	"/>
	<path fill-rule="evenodd" clip-rule="evenodd" fill="#FFFFFF" d="M205.904,292.944v-0.065H182.78v0.011
		c2.557,0.354,4.558,3.144,4.558,6.581v16.008H158.37v-16.013c0-3.247,1.786-5.944,4.141-6.521v-0.065h-23.123v0.011
		c2.557,0.354,4.558,3.144,4.558,6.581v48.169c0,3.438-2.001,6.233-4.558,6.582v0.032h23.123v-0.093
		c-2.355-0.577-4.141-3.274-4.141-6.521v-20.333h28.968v20.333c0,3.438-2.001,6.233-4.558,6.582v0.032h23.124v-0.093
		c-2.358-0.577-4.142-3.274-4.142-6.521v-48.174C201.762,296.219,203.546,293.521,205.904,292.944L205.904,292.944z"/>
	<path fill-rule="evenodd" clip-rule="evenodd" fill="#FFFFFF" d="M115.581,296.131l1.61-3.252H98.984h-7.658h-5.54H75.86H59.922
		l1.608,3.252l-5.473,13.202c0,0,8.264-5.688,12.449-6.658c2.972-0.687,8.372,0.087,11.91,0.752v44.213c0,3.438-2,6.233-4.558,6.582
		v0.032h23.125v-0.093c-2.358-0.577-4.142-3.274-4.142-6.521v-43.848c3.145-0.66,10.199-1.94,13.764-1.117
		c4.185,0.97,12.45,6.658,12.45,6.658L115.581,296.131L115.581,296.131z"/>
	<path fill-rule="evenodd" clip-rule="evenodd" fill="#FFFFFF" d="M272.751,293.042v0.017c2.555,0.349,4.561,3.144,4.561,6.576
		l0.343,33.97c-0.185,6.092-8.02,9.563-14.58,9.563c-6.554,0-14.46-4.419-14.46-11.017l0.229-32.353
		c0-3.247,1.787-5.938,4.146-6.521v-0.065h-23.123v0.011c2.555,0.354,4.555,3.144,4.555,6.582v36.711
		c0,10.259,12.831,18.578,28.653,18.578c15.828,0,28.658-8.319,28.658-18.578v-36.886c0-3.247,1.787-5.944,4.141-6.521v-0.065
		H272.751L272.751,293.042z"/>
	<path fill-rule="evenodd" clip-rule="evenodd" fill="#FFFFFF" d="M385.87,292.944v-0.065h-23.117v0.011
		c2.555,0.354,4.555,3.144,4.555,6.581v33.992l1.013,3.221l-1.362-2.044l-20.9-38.879v-2.882h-6.478h-8.521h-14.602v0.011
		c2.555,0.354,4.555,3.144,4.555,6.581v48.169c0,3.438-2,6.233-4.555,6.582v0.032h23.123v-0.093
		c-2.359-0.577-4.141-3.274-4.141-6.521v-41.331l25.684,46.234l-1.705,1.711h3.334h4.026h19.091v-0.093
		c-2.354-0.577-4.141-3.274-4.141-6.521v-48.174C381.729,296.219,383.516,293.521,385.87,292.944L385.87,292.944z"/>
	<polygon fill-rule="evenodd" clip-rule="evenodd" fill="#FFFFFF" points="417.508,384.749 32.111,384.749 32.111,380.554 
		417.508,380.554 417.508,384.749 	"/>
</g>
</svg>
